<svg width="59" height="81" viewBox="0 0 59 81" fill="none" xmlns="http://www.w3.org/2000/svg">
<path d="M59 15.062C55.4344 11.436 46.0969 4.48512 37.272 5.69008L23.7337 45.186C32.3692 49.7045 50.5762 63.1934 54.3201 81C46.2975 74.8636 25.238 64.8 5.1813 73.6364L7.52125 67.6116C16.9367 66.6632 38.7762 67.4107 50.8102 77.9876C41.6176 68.281 21.1263 62.9256 0 65.6033L2.33994 57.7376H9.69405L8.02266 62.0888C18.4073 62.6887 39.3863 65.869 48.2512 73.8456C40.9276 65.7126 30.6921 58.2264 1.16997 56.7335L18.5524 7.53099C20.6695 7.58678 25.472 7.96612 27.745 9.03719L26.4079 13.0537L23.3994 13.5558L9.69405 52.8843C19.2767 53.4979 40.715 58.5074 49.8074 73.6364C46.6874 67.0537 35.4 52.8843 15.2096 48.8678L32.7592 0C39.3333 0 53.7853 3.0124 59 15.062Z" fill="url(#paint0_linear_50_42)"/>
<defs>
<linearGradient id="paint0_linear_50_42" x1="74.5694" y1="23.7273" x2="0.0199132" y2="46.701" gradientUnits="userSpaceOnUse">
<stop stop-color="#CBB700"/>
<stop offset="0.783647" stop-color="#F00000"/>
</linearGradient>
</defs>
</svg>
