<svg width="435" height="116" viewBox="0 0 435 116" fill="none" xmlns="http://www.w3.org/2000/svg">
<path d="M65.0682 93V23.1818H93.0227C98.1591 23.1818 102.443 23.9432 105.875 25.4659C109.307 26.9886 111.886 29.1023 113.614 31.8068C115.341 34.4886 116.205 37.5795 116.205 41.0795C116.205 43.8068 115.659 46.2045 114.568 48.2727C113.477 50.3182 111.977 52 110.068 53.3182C108.182 54.6136 106.023 55.5341 103.591 56.0795V56.7614C106.25 56.875 108.739 57.625 111.057 59.0114C113.398 60.3977 115.295 62.3409 116.75 64.8409C118.205 67.3182 118.932 70.2727 118.932 73.7045C118.932 77.4091 118.011 80.7159 116.17 83.625C114.352 86.5114 111.659 88.7955 108.091 90.4773C104.523 92.1591 100.125 93 94.8977 93H65.0682ZM79.8295 80.9318H91.8636C95.9773 80.9318 98.9773 80.1477 100.864 78.5795C102.75 76.9886 103.693 74.875 103.693 72.2386C103.693 70.3068 103.227 68.6023 102.295 67.125C101.364 65.6477 100.034 64.4886 98.3068 63.6477C96.6023 62.8068 94.5682 62.3864 92.2045 62.3864H79.8295V80.9318ZM79.8295 52.3977H90.7727C92.7955 52.3977 94.5909 52.0455 96.1591 51.3409C97.75 50.6136 99 49.5909 99.9091 48.2727C100.841 46.9545 101.307 45.375 101.307 43.5341C101.307 41.0114 100.409 38.9773 98.6136 37.4318C96.8409 35.8864 94.3182 35.1136 91.0455 35.1136H79.8295V52.3977ZM192.696 58.0909C192.696 65.7045 191.253 72.1818 188.366 77.5227C185.503 82.8636 181.594 86.9432 176.639 89.7614C171.707 92.5568 166.162 93.9545 160.003 93.9545C153.798 93.9545 148.23 92.5455 143.298 89.7273C138.366 86.9091 134.469 82.8295 131.605 77.4886C128.741 72.1477 127.31 65.6818 127.31 58.0909C127.31 50.4773 128.741 44 131.605 38.6591C134.469 33.3182 138.366 29.25 143.298 26.4545C148.23 23.6364 153.798 22.2273 160.003 22.2273C166.162 22.2273 171.707 23.6364 176.639 26.4545C181.594 29.25 185.503 33.3182 188.366 38.6591C191.253 44 192.696 50.4773 192.696 58.0909ZM177.73 58.0909C177.73 53.1591 176.991 49 175.514 45.6136C174.06 42.2273 172.003 39.6591 169.344 37.9091C166.685 36.1591 163.571 35.2841 160.003 35.2841C156.435 35.2841 153.321 36.1591 150.662 37.9091C148.003 39.6591 145.935 42.2273 144.457 45.6136C143.003 49 142.276 53.1591 142.276 58.0909C142.276 63.0227 143.003 67.1818 144.457 70.5682C145.935 73.9545 148.003 76.5227 150.662 78.2727C153.321 80.0227 156.435 80.8977 160.003 80.8977C163.571 80.8977 166.685 80.0227 169.344 78.2727C172.003 76.5227 174.06 73.9545 175.514 70.5682C176.991 67.1818 177.73 63.0227 177.73 58.0909ZM267.79 58.0909C267.79 65.7045 266.347 72.1818 263.46 77.5227C260.597 82.8636 256.688 86.9432 251.733 89.7614C246.801 92.5568 241.256 93.9545 235.097 93.9545C228.892 93.9545 223.324 92.5455 218.392 89.7273C213.46 86.9091 209.563 82.8295 206.699 77.4886C203.835 72.1477 202.403 65.6818 202.403 58.0909C202.403 50.4773 203.835 44 206.699 38.6591C209.563 33.3182 213.46 29.25 218.392 26.4545C223.324 23.6364 228.892 22.2273 235.097 22.2273C241.256 22.2273 246.801 23.6364 251.733 26.4545C256.688 29.25 260.597 33.3182 263.46 38.6591C266.347 44 267.79 50.4773 267.79 58.0909ZM252.824 58.0909C252.824 53.1591 252.085 49 250.608 45.6136C249.153 42.2273 247.097 39.6591 244.438 37.9091C241.778 36.1591 238.665 35.2841 235.097 35.2841C231.528 35.2841 228.415 36.1591 225.756 37.9091C223.097 39.6591 221.028 42.2273 219.551 45.6136C218.097 49 217.369 53.1591 217.369 58.0909C217.369 63.0227 218.097 67.1818 219.551 70.5682C221.028 73.9545 223.097 76.5227 225.756 78.2727C228.415 80.0227 231.528 80.8977 235.097 80.8977C238.665 80.8977 241.778 80.0227 244.438 78.2727C247.097 76.5227 249.153 73.9545 250.608 70.5682C252.085 67.1818 252.824 63.0227 252.824 58.0909ZM278.724 93V23.1818H293.486V53.9659H294.406L319.531 23.1818H337.224L311.315 54.4432L337.531 93H319.872L300.747 64.2955L293.486 73.1591V93H278.724ZM382.224 43.2614C381.952 40.5114 380.781 38.375 378.713 36.8523C376.645 35.3295 373.838 34.5682 370.293 34.5682C367.884 34.5682 365.849 34.9091 364.19 35.5909C362.531 36.25 361.259 37.1705 360.372 38.3523C359.509 39.5341 359.077 40.875 359.077 42.375C359.031 43.625 359.293 44.7159 359.861 45.6477C360.452 46.5795 361.259 47.3864 362.281 48.0682C363.304 48.7273 364.486 49.3068 365.827 49.8068C367.168 50.2841 368.599 50.6932 370.122 51.0341L376.395 52.5341C379.44 53.2159 382.236 54.125 384.781 55.2614C387.327 56.3977 389.531 57.7955 391.395 59.4545C393.259 61.1136 394.702 63.0682 395.724 65.3182C396.77 67.5682 397.304 70.1477 397.327 73.0568C397.304 77.3295 396.213 81.0341 394.054 84.1705C391.918 87.2841 388.827 89.7045 384.781 91.4318C380.759 93.1364 375.906 93.9886 370.224 93.9886C364.588 93.9886 359.679 93.125 355.497 91.3977C351.338 89.6705 348.088 87.1136 345.747 83.7273C343.429 80.3182 342.213 76.1023 342.099 71.0795H356.384C356.543 73.4205 357.213 75.375 358.395 76.9432C359.599 78.4886 361.202 79.6591 363.202 80.4545C365.224 81.2273 367.509 81.6136 370.054 81.6136C372.554 81.6136 374.724 81.25 376.565 80.5227C378.429 79.7955 379.872 78.7841 380.895 77.4886C381.918 76.1932 382.429 74.7045 382.429 73.0227C382.429 71.4545 381.963 70.1364 381.031 69.0682C380.122 68 378.781 67.0909 377.009 66.3409C375.259 65.5909 373.111 64.9091 370.565 64.2955L362.963 62.3864C357.077 60.9545 352.429 58.7159 349.02 55.6705C345.611 52.625 343.918 48.5227 343.94 43.3636C343.918 39.1364 345.043 35.4432 347.315 32.2841C349.611 29.125 352.759 26.6591 356.759 24.8864C360.759 23.1136 365.304 22.2273 370.395 22.2273C375.577 22.2273 380.099 23.1136 383.963 24.8864C387.849 26.6591 390.872 29.125 393.031 32.2841C395.19 35.4432 396.304 39.1023 396.372 43.2614H382.224Z" fill="black"/>
<path d="M428 93.5043L425.536 93.5043L411.787 83.7053L411.787 93.5234L408.364 93.5234L408.364 78.4893L410.828 78.4893L424.577 88.2979L424.577 78.4702L428 78.4702L428 93.5043ZM418.182 58.1626C420.323 58.1626 422.145 58.5685 423.647 59.3803C425.149 60.1857 426.297 61.2852 427.089 62.6786C427.875 64.0657 428.268 65.6254 428.268 67.3576C428.268 69.1026 427.872 70.6687 427.08 72.0558C426.287 73.4428 425.14 74.5391 423.637 75.3445C422.135 76.1499 420.317 76.5526 418.182 76.5526C416.04 76.5526 414.219 76.1499 412.717 75.3445C411.214 74.5391 410.07 73.4428 409.284 72.0558C408.491 70.6687 408.095 69.1026 408.095 67.3576C408.095 65.6254 408.491 64.0657 409.284 62.6786C410.07 61.2852 411.214 60.1857 412.717 59.3803C414.219 58.5685 416.04 58.1626 418.182 58.1626ZM418.182 62.3718C416.795 62.3718 415.625 62.5795 414.673 62.995C413.72 63.4041 412.998 63.9826 412.506 64.7305C412.013 65.4783 411.767 66.354 411.767 67.3576C411.767 68.3611 412.013 69.2369 412.506 69.9847C412.998 70.7326 413.72 71.3143 414.673 71.7298C415.625 72.1388 416.795 72.3434 418.182 72.3434C419.569 72.3434 420.739 72.1388 421.691 71.7298C422.643 71.3143 423.366 70.7326 423.858 69.9847C424.35 69.2369 424.596 68.3611 424.596 67.3576C424.596 66.354 424.35 65.4783 423.858 64.7305C423.366 63.9826 422.643 63.4041 421.691 62.995C420.739 62.5795 419.569 62.3718 418.182 62.3718ZM408.364 38.6629L428 38.6629L428 42.2488L415.641 50.7918L415.641 50.9356L428 50.9356L428 55.0873L408.364 55.0873L408.364 51.4438L420.713 42.9679L420.713 42.7954L408.364 42.7954L408.364 38.6629ZM428 35.2328L408.364 35.2328L408.364 22.0012L411.787 22.0012L411.787 31.0811L416.466 31.0811L416.466 22.682L419.888 22.682L419.888 31.0811L424.577 31.0811L424.577 21.9629L428 21.9629L428 35.2328Z" fill="url(#paint0_linear_50_45)"/>
<path d="M59 33.062C55.4344 29.436 46.0969 22.4851 37.272 23.6901L23.7337 63.186C32.3692 67.7045 50.5762 81.1934 54.3201 99C46.2975 92.8636 25.238 82.8 5.1813 91.6364L7.52125 85.6116C16.9367 84.6632 38.7762 85.4107 50.8102 95.9876C41.6176 86.281 21.1263 80.9256 0 83.6033L2.33994 75.7376H9.69405L8.02266 80.0888C18.4073 80.6887 39.3863 83.869 48.2512 91.8456C40.9276 83.7126 30.6921 76.2264 1.16997 74.7335L18.5524 25.531C20.6695 25.5868 25.472 25.9661 27.745 27.0372L26.4079 31.0537L23.3994 31.5558L9.69405 70.8843C19.2767 71.4979 40.715 76.5074 49.8074 91.6364C46.6874 85.0537 35.4 70.8843 15.2096 66.8678L32.7592 18C39.3333 18 53.7853 21.0124 59 33.062Z" fill="url(#paint1_linear_50_45)"/>
<defs>
<linearGradient id="paint0_linear_50_45" x1="411.667" y1="0.208337" x2="463.51" y2="54.1252" gradientUnits="userSpaceOnUse">
<stop stop-color="#CBB700"/>
<stop offset="0.783647" stop-color="#F00000"/>
</linearGradient>
<linearGradient id="paint1_linear_50_45" x1="74.5694" y1="41.7273" x2="0.0199132" y2="64.701" gradientUnits="userSpaceOnUse">
<stop stop-color="#CBB700"/>
<stop offset="0.783647" stop-color="#F00000"/>
</linearGradient>
</defs>
</svg>
